ModelForces
version=1
nRows=4
nColumns=155
inDegrees=no

This file contains the forces exerted on a model during a simulation.

A force is a generalized force, meaning that it can be either a force (N) or a torque (Nm).

Units are S.I. units (second, meters, Newtons, ...)
Angles are in degrees.

endheader
time	glut_med1_r	glut_med2_r	glut_med3_r	glut_min1_r	glut_min2_r	glut_min3_r	semimem_r	semiten_r	bifemlh_r	bifemsh_r	sar_r	add_long_r	add_brev_r	add_mag1_r	add_mag2_r	add_mag3_r	tfl_r	pect_r	grac_r	glut_max1_r	glut_max2_r	glut_max3_r	iliacus_r	psoas_r	quad_fem_r	gem_r	peri_r	rect_fem_r	vas_med_r	vas_int_r	vas_lat_r	med_gas_r	lat_gas_r	soleus_r	tib_post_r	flex_dig_r	flex_hal_r	tib_ant_r	per_brev_r	per_long_r	per_tert_r	ext_dig_r	ext_hal_r	glut_med1_l	glut_med2_l	glut_med3_l	glut_min1_l	glut_min2_l	glut_min3_l	semimem_l	semiten_l	bifemlh_l	bifemsh_l	sar_l	add_long_l	add_brev_l	add_mag1_l	add_mag2_l	add_mag3_l	tfl_l	pect_l	grac_l	glut_max1_l	glut_max2_l	glut_max3_l	iliacus_l	psoas_l	quad_fem_l	gem_l	peri_l	rect_fem_l	vas_med_l	vas_int_l	vas_lat_l	med_gas_l	lat_gas_l	soleus_l	tib_post_l	flex_dig_l	flex_hal_l	tib_ant_l	per_brev_l	per_long_l	per_tert_l	ext_dig_l	ext_hal_l	ercspn_r	ercspn_l	intobl_r	intobl_l	extobl_r	extobl_l	femur_lat_meniscii_r.femur_lat_r.force.X	femur_lat_meniscii_r.femur_lat_r.force.Y	femur_lat_meniscii_r.femur_lat_r.force.Z	femur_lat_meniscii_r.femur_lat_r.torque.X	femur_lat_meniscii_r.femur_lat_r.torque.Y	femur_lat_meniscii_r.femur_lat_r.torque.Z	femur_lat_meniscii_r.meniscus_lat_r.force.X	femur_lat_meniscii_r.meniscus_lat_r.force.Y	femur_lat_meniscii_r.meniscus_lat_r.force.Z	femur_lat_meniscii_r.meniscus_lat_r.torque.X	femur_lat_meniscii_r.meniscus_lat_r.torque.Y	femur_lat_meniscii_r.meniscus_lat_r.torque.Z	femur_med_meniscii_r.femur_med_r.force.X	femur_med_meniscii_r.femur_med_r.force.Y	femur_med_meniscii_r.femur_med_r.force.Z	femur_med_meniscii_r.femur_med_r.torque.X	femur_med_meniscii_r.femur_med_r.torque.Y	femur_med_meniscii_r.femur_med_r.torque.Z	femur_med_meniscii_r.meniscus_med_r.force.X	femur_med_meniscii_r.meniscus_med_r.force.Y	femur_med_meniscii_r.meniscus_med_r.force.Z	femur_med_meniscii_r.meniscus_med_r.torque.X	femur_med_meniscii_r.meniscus_med_r.torque.Y	femur_med_meniscii_r.meniscus_med_r.torque.Z	femur_med_tibia_r.tibia_upper_r.force.X	femur_med_tibia_r.tibia_upper_r.force.Y	femur_med_tibia_r.tibia_upper_r.force.Z	femur_med_tibia_r.tibia_upper_r.torque.X	femur_med_tibia_r.tibia_upper_r.torque.Y	femur_med_tibia_r.tibia_upper_r.torque.Z	femur_med_tibia_r.femur_med_r.force.X	femur_med_tibia_r.femur_med_r.force.Y	femur_med_tibia_r.femur_med_r.force.Z	femur_med_tibia_r.femur_med_r.torque.X	femur_med_tibia_r.femur_med_r.torque.Y	femur_med_tibia_r.femur_med_r.torque.Z	femur_lat_tibia_r.tibia_upper_r.force.X	femur_lat_tibia_r.tibia_upper_r.force.Y	femur_lat_tibia_r.tibia_upper_r.force.Z	femur_lat_tibia_r.tibia_upper_r.torque.X	femur_lat_tibia_r.tibia_upper_r.torque.Y	femur_lat_tibia_r.tibia_upper_r.torque.Z	femur_lat_tibia_r.femur_lat_r.force.X	femur_lat_tibia_r.femur_lat_r.force.Y	femur_lat_tibia_r.femur_lat_r.force.Z	femur_lat_tibia_r.femur_lat_r.torque.X	femur_lat_tibia_r.femur_lat_r.torque.Y	femur_lat_tibia_r.femur_lat_r.torque.Z	aACL_R	pACL_R	aPCL_R	pPCL_R	aMCL_R	mMCL_R	pMCL_R	aLCL_R	mLCL_R	pLCL_R	aPCL_L	pPCL_L	aMCL_L	aLCL_L
      0.20974723	      9.70866055	      7.14584231	      7.67115826	      3.32070207	      3.89739743	      4.10472668	      0.00000000	    163.61978828	    181.78876651	    341.18743312	    122.27382442	      7.09905234	      5.16114189	      3.67578466	      3.10716838	      5.16962183	      3.27372383	      2.80001360	     92.55983549	      4.61178358	      7.01302775	      5.25679542	     25.34363642	     16.01880548	      4.55144619	      3.29350579	      5.56923581	    114.04810583	     40.62452380	     31.37823070	     56.16928492	      0.00000000	      0.00000000	      0.00000000	      0.00000000	      0.00000000	      0.00000000	     35.52240901	      1.47019525	      3.33406684	     23.25929970	     49.07608620	     11.66307386	      9.70866055	      7.14584231	      7.67115826	      3.32070207	      3.89739743	      4.10472668	     10.58958553	      5.24057042	     10.25504019	      9.05762654	      1.89603392	      7.09905234	      5.16114189	      3.67578466	      3.10716838	      5.16962183	      4.82908681	      2.80001360	      1.95220504	      4.61178358	      7.01302775	      5.25679542	     25.34363642	     16.01880548	      4.55144619	      3.29350579	      5.56923581	     14.19270838	      0.00000000	      0.00000000	      0.00000000	     19.32180822	      9.02593494	     42.95505840	     47.26405523	      4.17156053	      3.63313039	     11.12108797	      5.88427316	     15.82249661	      2.47787732	      7.86793805	      2.52011687	     31.24619873	     31.24619873	     11.46728993	     11.46728993	     29.02388533	     29.02388533	    180.60023983	    108.91563451	      8.60013593	     -5.91496152	      4.18506203	     71.72797504	   -180.60023983	   -108.91563451	     -8.60013593	      2.80619401	     -4.88764226	      2.45296034	      0.03991861	      0.00119773	     -0.02505485	      0.00997759	     -0.00062101	      0.01586667	     -0.03991861	     -0.00119773	      0.02505485	     -0.00009314	      0.00119689	     -0.00009075	   -886.31995946	   -366.05361775	    315.63868753	     -8.26278078	     21.85179567	      2.31513742	    886.31995946	    366.05361775	   -315.63868753	    133.69821654	    -15.59335291	    357.16822262	   -291.90284170	   -130.36022306	    -78.92482705	      4.22786634	    -10.04913657	      0.96296309	    291.90284170	    130.36022306	     78.92482705	    -35.01614632	      7.14978951	    117.69609896	      0.80503342	      0.00000000	    964.31606872	    609.48205600	     24.17514749	     10.38346572	      0.00000000	      0.00000000	      0.00000000	      0.00000000	      0.00000000	      0.00000000	      0.00000001	      0.00000000
      0.20975469	      9.70844907	      7.14569781	      7.67100121	      3.32063775	      3.89732735	      4.10463728	      0.00000000	    163.62195679	    181.79398795	    341.18284647	    122.27270375	      7.09890709	      5.16104285	      3.67571087	      3.10710441	      5.16950582	      3.27371902	      2.79995899	     92.55947632	      4.61169013	      7.01288527	      5.25668680	     25.34337198	     16.01850471	      4.55135608	      3.29346244	      5.56911980	    114.05837967	     40.62383147	   4510.56400888	     56.16812391	      0.00000000	      0.00000000	      0.00000000	      0.00000000	      0.00000000	      0.00000000	     35.52257458	      1.46956430	      3.33326995	     23.25745013	     49.07266888	     11.66213031	      9.70844907	      7.14569781	      7.67100121	      3.32063775	      3.89732735	      4.10463728	     10.58970611	      5.24045696	     10.25479425	      9.05744706	      1.89599737	      7.09890709	      5.16104285	      3.67571087	      3.10710441	      5.16950582	      4.82901501	      2.79995899	      1.95216673	      4.61169013	      7.01288527	      5.25668680	     25.34337198	     16.01850471	      4.55135608	      3.29346244	      5.56911980	     14.19236652	      0.00000000	      0.00000000	      0.00000000	     19.32145155	      9.02575816	     42.95400110	     47.26359216	      4.17133764	      3.63293186	     11.12082851	      5.88412563	     15.82219274	      2.47783091	      7.86783298	      2.52008578	     31.24559211	     31.24559211	     11.46704832	     11.46704832	     29.02366752	     29.02366752	    165.12736022	    109.23105374	     12.52737420	     -7.51268169	      3.86668430	     65.45854279	   -165.12736022	   -109.23105374	    -12.52737420	      2.85587998	     -4.63562384	      2.62894602	      0.03563733	      0.00147373	     -0.02248091	      0.00895660	     -0.00055539	      0.01416145	     -0.03563733	     -0.00147373	      0.02248091	     -0.00008653	      0.00107258	     -0.00006647	   -880.19474252	   -373.48612442	    310.77103589	     -8.27787667	     21.59757954	      2.68349525	    880.19474252	    373.48612442	   -310.77103589	    131.81341380	    -15.45520772	    354.58731870	   -289.52978660	   -133.28935780	    -80.65222526	      4.32198685	    -10.06282153	      1.11639515	    289.52978660	    133.28935780	     80.65222526	    -35.78401362	      7.12267146	    116.68673525	     -0.39750893	      0.00000000	    967.66453445	    618.59192762	     27.43695840	     14.44285265	      0.00000000	      0.00000000	      0.00000000	      0.00000000	      0.00000000	      0.00000000	      0.00000001	      0.00000000
      0.20976216	      9.70823762	      7.14555333	      7.67084419	      3.32057343	      3.89725729	      4.10454788	      0.00000000	    163.61935939	    181.79279283	    341.15065361	    122.26831538	      7.09876186	      5.16094381	      3.67563709	      3.10704045	      5.16938983	      3.27381188	      2.79990438	     92.55601063	      4.61159669	      7.01274280	      5.25657819	     25.34310757	     16.01820397	      4.55126599	      3.29341909	      5.56900380	    114.06423189	     40.61724868	   2812.38425963	     56.15926401	      0.00000000	      0.00000000	      0.00000000	      0.00000000	      0.00000000	      0.00000000	     35.52309949	      1.46887496	      3.33240381	     23.25559873	     49.06937656	     11.66123801	      9.70823762	      7.14555333	      7.67084419	      3.32057343	      3.89725729	      4.10454788	     10.58982652	      5.24034350	     10.25454833	      9.05726759	      1.89596082	      7.09876186	      5.16094381	      3.67563709	      3.10704045	      5.16938983	      4.82894323	      2.79990438	      1.95212843	      4.61159669	      7.01274280	      5.25657819	     25.34310757	     16.01820397	      4.55126599	      3.29341909	      5.56900380	     14.19202469	      0.00000000	      0.00000000	      0.00000000	     19.32109488	      9.02558139	     42.95294389	     47.26312914	      4.17111476	      3.63273334	     11.12056907	      5.88397812	     15.82188889	      2.47778450	      7.86772791	      2.52005470	     31.24498554	     31.24498554	     11.46680674	     11.46680674	     29.02344972	     29.02344972	    153.57635208	    109.03787231	     15.24783465	     -8.60975283	      3.62611906	     60.78368260	   -153.57635208	   -109.03787231	    -15.24783465	      2.87952356	     -4.43886888	      2.74325351	      0.03235553	      0.00161356	     -0.02048762	      0.00816518	     -0.00050491	      0.01285493	     -0.03235553	     -0.00161356	      0.02048762	     -0.00008085	      0.00097657	     -0.00005042	   -875.39379476	   -378.78736337	    307.12050058	     -8.28602135	     21.40456956	      2.95253109	    875.39379476	    378.78736337	   -307.12050058	    130.39609474	    -15.34868492	    352.57011519	   -287.79384256	   -135.16983352	    -81.81385553	      4.38331862	    -10.06869663	      1.21833455	    287.79384256	    135.16983352	     81.81385553	    -36.29868651	      7.10144751	    115.95165908	     -1.29021013	      0.00000000	    970.19635176	    625.42590863	     29.88052774	     17.48195225	      0.00000000	      0.00000000	      0.00000000	      0.00000000	      0.00000000	      0.00000000	      0.00000001	      0.00000000
      0.20979475	      9.70731464	      7.14492268	      7.67015879	      3.32029270	      3.89695147	      4.10415769	      0.00000000	    163.58776456	    181.75998800	    340.89456636	    122.23561166	      7.09812794	      5.16051155	      3.67531503	      3.10676125	      5.16888354	      3.27464302	      2.79966604	     92.52787943	      4.61118884	      7.01212095	      5.25610413	     25.34195346	     16.01689132	      4.55087274	      3.29322987	      5.56849740	    114.07970930	     40.56381469	    308.19021330	     56.09066357	      0.00000000	      0.00000000	      0.00000000	      0.00000000	      0.00000000	      0.00000000	     35.52691082	      1.46561779	      3.32832380	     23.24751162	     49.05553090	     11.65755876	      9.70731464	      7.14492268	      7.67015879	      3.32029270	      3.89695147	      4.10415769	     10.59035028	      5.23984830	     10.25347493	      9.05648427	      1.89580128	      7.09812794	      5.16051155	      3.67531503	      3.10676125	      5.16888354	      4.82862989	      2.79966604	      1.95196126	      4.61118884	      7.01212095	      5.25610413	     25.34195346	     16.01689132	      4.55087274	      3.29322987	      5.56849740	     14.19053264	      0.00000000	      0.00000000	      0.00000000	     19.31953770	      9.02480964	     42.94832909	     47.26110808	      4.17014186	      3.63186689	     11.11943665	      5.88333425	     15.82056262	      2.47758195	      7.86726914	      2.51991893	     31.24233799	     31.24233799	     11.46575229	     11.46575229	     29.02249909	     29.02249909	    137.26118834	    108.05205903	     18.62335857	     -9.95415071	      3.28104334	     54.18931356	   -137.26118834	   -108.05205903	    -18.62335857	      2.89003482	     -4.14308254	      2.87740976	      0.02723895	      0.00169697	     -0.01734422	      0.00691568	     -0.00042589	      0.01081908	     -0.02723895	     -0.00169697	      0.01734422	     -0.00007076	      0.00082561	     -0.00003008	   -866.97295719	   -385.03042725	    301.65653382	     -8.27703572	     21.10134085	      3.31292788	    866.97295719	    385.03042725	   -301.65653382	    128.25037120	    -15.17148117	    349.06403706	   -284.90825774	   -137.85294732	    -83.37217767	      4.46846943	    -10.06383440	      1.37219419	    284.90825774	    137.85294732	     83.37217767	    -36.99186105	      7.06143254	    114.73455816	     -2.49830625	      0.00000000	    974.00077959	    635.16842008	     33.31033490	     21.73857099	      0.00000000	      0.00000000	      0.00000000	      0.00000000	      0.00000000	      0.00000000	      0.00000001	      0.00000000
